<?xml version="1.0" encoding="utf-8"?>
<!-- Generator: Adobe Illustrator 24.3.0, SVG Export Plug-In . SVG Version: 6.00 Build 0)  -->
<svg version="1.1" id="Layer_1" xmlns="http://www.w3.org/2000/svg" xmlns:xlink="http://www.w3.org/1999/xlink" x="0px" y="0px"
	 viewBox="0 0 1920 1080" enable-background="new 0 0 1920 1080" xml:space="preserve">
<g>
	<g class="squid">
		<path fill="#8C1308" d="M864.84,488.05c-5.67-1.89-8.4-6.12-10.24-11.62c-2.36-7.04-1.1-16.54-11.27-18.87
			c-10.6-2.42-15.48,7.13-18.43,12.86c-5.82,11.31-14.51,12.12-24.6,12.29c-6.52,0.28-10-5.96-15.99-7.33
			c-26.88-6.17-53.47-13.73-80.53-18.86c-22.6-4.29-44.28-15.43-68.31-10.48c-53.4-19.34-100.96-48.45-144.1-85.2
			c-7.24-6.16-12.32-15.34-22.61-17.65c2.3-4.92-1.32-6.56-4.59-8.61c-7.94-4.99-16.11-9.71-23.59-15.33
			c-21.36-16.05-43.08-31.48-67.16-43.33c-12.64-6.22-25.03-12.94-37.54-19.43c27.62-3.84,53.74-2.12,74.34,20.02
			c3.16,3.4,6.03,6.97,11.56,6.2c7.98-1.1,12.28,2.12,12.72,10.65c0.14,2.66,2.15,6.88,4.11,7.42c3.13,0.85,4.1-3.39,5.61-5.82
			c7.09-11.39,12.27-23.93,21.51-34.04c3.73-4.08,9.48-10.11,8.59-13.93c-3.35-14.44,5.08-13.77,14.53-14.19
			c12.03-0.53,19.37-10.43,16.89-21.31c-2.69-11.78-7.44-21.94-19.25-27.2c3.26,0.03,6.82-0.79,9.72,0.24
			c19.31,6.82,38.65,13.29,59.05,16.26c5.38,0.78,3.07,4.11,0.95,7.1c-2.97,4.18-9.58,4.55-10.72,10.49l-0.06,0.08
			c-0.51,0.39-1.03,0.79-1.54,1.18c-4.53,3.21-9.05,6.43-13.58,9.64c4.77,1.81,9.45,3.89,14.32,5.38c6.17,1.9,12.49,3.32,18.75,4.95
			c3.3,2.75,6.3,5.99,9.94,8.17c21.69,12.99,44.48,17.12,69.36,9.78c18.37-5.42,21.79-2.54,26,15.29
			c1.13,4.78,3.84,10.33,9.55,10.89c15.87,1.55,31.82,2.31,47.73,3.38c24.63,3.64,49.25,0.57,73.87-0.23
			c1.3-0.04,3.18-2.15,3.68-3.66c1.72-5.26,5.6-6.11,10.3-5.95c5.92,0.2,11.84,0.28,17.76,0.42c0,0,0.4,0.28,0.4,0.28
			c0.49,0.35,0.98,0.69,1.47,1.04c20.07,13.6,40.14,27.19,60.21,40.79c-1.87,8.64-7.88,17.91,3.71,24.51
			c2.5,6.53,7.59,11.14,12.33,15.85c5.07,5.04,5.08,9.12-0.82,13.12c-3.8,2.57-8.09,4.6-11.36,7.72c-4.78,4.56-8.04,2.68-9.99-2
			c-3.39-8.17-10.86-10.9-17.71-14.5c-2.88-1.51-6.53-2.81-8.86,0.6c-2.46,3.61-6.45,7.36-2.93,12.4c3.23,4.63,2.18,8.68,0.07,13.59
			c-1.91,4.44-7.44,9.41-3.89,14.09c8.7,11.48,0.52,14.54-7.75,17.97c-9.88,4.1-22.72,1.5-29.31,12.99
			c-2.78-2.17-6.28-3.83-5.9-8.25c15.87-10.37,14.21-25.34,10.7-40.78c11.51-10.52,10.6-19.24-1.68-28.26
			c-16.36-12.03-31.51-4.16-46.98,1.55c-8.15,8.57-22.19,13.37-18.53,29.57c0.32,1.42-2.75,3.6-4.24,5.43
			c-2.62,0.66-5.36,1.02-7.84,2.03c-25.05,10.2-50.43-4.1-59.6-19.54c-8.8-14.83-14.9-31.3-26.14-44.63
			c-9.88-11.72-20.18-23.24-37.76-21.97c-7.31,3.29-14.63,5.12-22.77,2.58c-10.87-3.38-18.14-11.5-26.22-18.62
			c-0.4-6.45,6.57-15.17-1.77-18.86c-9.74-4.31-18.32-9.49-26.41-16.25c-17.12-14.3-33.93-30.17-59.3-17.26
			c-3.66,1.86-6.93,2.84-4.33,7.17c5.29,8.78,11.1,17.26,16.7,25.86c-3.46,13.05-6.92,26.1-10.39,39.15
			c-7.79,13.49-4.65,25.4,9.89,37.54c8.31,6.57,16.62,13.15,24.93,19.72c25.32,14.73,51.04,28.83,75.79,44.45
			c13.39,8.45,22.35,7.84,28.94-7.08c8.7,3.89,17.41,7.78,26.11,11.67c14.62,2.62,29.32,4.92,43.86,7.95
			c17.91,3.73,35.58,5.45,52.86-2.53c8.99-6.11,17.95-12.27,27-18.3c1.73-1.16,3.81-1.8,5.73-2.67c0.43,2,1.2,3.98,1.23,5.99
			c0.17,9.55,3.01,17.1,13.54,19.36c8.34,3.01,12.76,10.7,19.15,16.03c-0.49,4.77-3.31,12.79,4.89,10.96
			c9.6-2.14,20.34-0.8,28.96-8.09c3.86-3.27,9.87-4.45,15.13-5.52c8.97-1.81,17.06,0.82,22.32,8.47
			c7.07,10.28,10.88,21.92,10.57,34.48c-0.09,3.43-3.57,2.05-5.95,1.89C881.38,488.83,873.11,488.48,864.84,488.05z M769.33,341.01
			c0.52,0,4.58,1.11,7.51-0.23c6.37-2.92,17.26-2.6,13.85-14.71c-5.38-19.11-21.21-30.74-40.96-30.8
			c-19.34-0.06-36.73,9.8-55.89,10.63c-3.77,0.16-4.24,3.6-4.25,6.81c-0.02,4.08,2.82,5.21,5.94,5.23
			c10.45,0.06,19.05,5.18,28.29,9.1C737.55,332.88,750.05,342.86,769.33,341.01z"/>
		<path fill="#EBB58D" d="M1262.61,836.59c18.33-11.44,39.84-17.15,56.64-31.25c5.25-4.4,9.17-9.99,9.98-17.18
			c-6.38,0.14-10.14,5.15-14.94,8.15c-15.21,9.52-30.57,18.84-45.23,29.15c-12.46,8.76-27.16,6.26-40.57,9.93
			c-0.96,0.26-2.12-0.23-3.18-0.37c0.93-0.79,1.75-2.02,2.82-2.29c38.05-9.77,65.9-37.08,97.93-57.13
			c10.76-6.74,13.9-36.3,7.47-53.19c-10.05-26.36-33.65-37.62-56.42-48.9c-41.09-20.34-87.17-26.64-129.32-44.3
			c-5.56-2.33-12.61-9.69-17.58-3.26c-3.95,5.11,2.97,11.97,6.16,17.17c8.92,14.55,24.78,21.62,37.17,32.48
			c30.98,27.17,70.18,38.42,106.48,55.3c4.15,1.93,8.16,4.17,12.23,6.27l0.06-0.07c-31.07-4.13-60.74-14.73-91.46-20.19
			c-33.41-5.93-53.53-30.74-76.7-51.11c-27.93-24.54-56.49-48.49-81.3-76.37c-0.64-0.72-0.68-1.96-1.01-2.96
			c4.37-0.68,9.88,1.04,12.33-4.09c2.34-4.9,0.17-10.24-2.97-13.6c-5.42-5.82-13.65-6.89-20.95-9.41
			c-6.28-9.89-12.6-19.76-18.82-29.68c-0.8-1.27-1.15-2.82-1.71-4.24c1.56,0.22,3.12,0.42,4.67,0.67
			c34.5,5.63,62.35,23.41,86.76,47.46c0.42,0.45,0.84,0.9,1.26,1.35l0.09,0.12c7.91,13.61,22.01,17.67,35.41,22.57
			c22.08,8.08,42.88,19.56,65.99,24.91c32.36,11.49,67.42,14.33,98.24,30.74c0.44,1.82,1.61,2.39,3.36,1.99l-0.09-0.12
			c3.13,9.16,11.71,13.11,18.68,17.95c59.86,41.52,39.6,115.34-7.34,145.66c-21.5,13.89-44.49,24.68-68.85,32.54
			C1251.13,844.76,1261.46,845.25,1262.61,836.59z M1057.87,546.24c-1.26,4.66-3.22,7.77-2.5,10.03c1.9,5.98,7.19,9.2,12.77,11.4
			c1.47,0.58,3.17-1.69,2.16-3.29C1066.73,558.76,1062.81,553.38,1057.87,546.24z"/>
		<path fill="#EBB58D" d="M1400.41,637.14c-14.56-1.37-29.12-2.82-43.69-4.07c-3.4-0.29-8.36-2.35-6.43,5.08
			c1.22,4.71,7.39,10.54,2.47,14c-5.87,4.12-13.84,0.86-20.11-2.12c-16.35-7.75-32.38-16.17-48.54-24.33
			c-19.38-10.41-38.9-20.48-60.42-25.89c-13.7-7.13-27.41-14.27-41.11-21.4c1.27-4.75-2.17-6.17-5.21-8.73
			c-15.73-13.23-38.01-6.86-54.32-18.68c-5.25-3.81-12.46-4.91-18.78-7.25c-0.89-0.16-1.77-0.32-2.65-0.47
			c0.61,0.49,1.22,0.99,1.83,1.48c9.35,11.31,19.93,20.75,35.23,22.93c4.82,5.69,9.64,11.38,14.46,17.07
			c-7.35,0.87-15.14,4.91-21.26-2.98c-19.39-18.12-38.82-36.21-58.14-54.41c-3.05-2.87-5.64-6.24-8.44-9.38
			c5.44-2.18,9.04,2.61,13.64,3.56c1.65,0.34,2.33,3.95,4.42,1.54c0.5-0.57-0.72-2.95-1.51-4.29c-4.65-7.99-9.44-15.89-14.07-23.88
			c-1.03-1.78-1.6-3.82-2.38-5.74c2.12,0.2,4.26,0.28,6.35,0.62c6.93,1.14,13.84,2.37,20.76,3.57
			c48.74,17.34,95.94,39.33,147.33,48.61c-1.82,0.41-3.64,0.82-5.47,1.22c1.16,1.36,2.06,3.18,3.52,4.02
			c33.97,19.77,65.92,43.22,104.61,54.15c47.42,13.41,95.32,19.84,144.19,11.25c10.31-1.81,19.74-8.67,29.57-13.2
			c-0.81,4.69,1.36,12.57-4.79,12.81c-16.68,0.66-30.89,7.39-45.87,13.5c-20.25,8.26-42.57,1.29-63.64,5.35
			c-2.51,0.48-4.87,1.76-7.3,2.67C1396.58,634.9,1398.5,636.02,1400.41,637.14z"/>
		<path fill="#160101" d="M486.5,184.28c11.81,5.26,16.57,15.42,19.25,27.2c2.48,10.88-4.87,20.78-16.89,21.31
			c-9.45,0.42-17.88-0.25-14.53,14.19c0.89,3.82-4.86,9.85-8.59,13.93c-9.24,10.12-14.41,22.66-21.51,34.04
			c-1.51,2.43-2.49,6.67-5.61,5.82c-1.97-0.54-3.97-4.75-4.11-7.42c-0.44-8.53-4.75-11.75-12.72-10.65c-5.54,0.77-8.4-2.8-11.56-6.2
			c-20.6-22.13-46.72-23.86-74.34-20.02c-5.95-3.52-11.89-7.03-17.84-10.55c-6.15-13.68-12.31-27.37-18.46-41.04
			c4.34-2.32,5.83,2.1,7.74,3.91c12.01,11.36,25.96,17.12,42.53,15.96c10.26-0.72,24.92,0.23,29.01-6.61
			c6.2-10.39,14.15-10.16,22.69-12.49c3.02-0.83,8.56-2.36,5.64-6.79c-4.48-6.79-0.02-6.65,4.34-8.25
			c24.47-8.95,49.69-8.26,75.04-6.37L486.5,184.28z M416.03,218.03c-7.32,3.87-21.65,6.15-20.24,9.13
			c4.24,8.94,15.95,10.29,25.4,13.24c2.22,0.69,3.56-0.99,2.8-2.53C420.84,231.44,421.42,223.36,416.03,218.03z"/>
		<path fill="#A4230F" d="M545.51,218.36c1.14-5.94,7.75-6.31,10.72-10.49c2.12-2.99,4.42-6.32-0.95-7.1
			c-20.4-2.97-39.74-9.44-59.05-16.26c-2.91-1.03-6.46-0.2-9.72-0.24c0,0,0.07-0.02,0.07-0.02c-2.84-3.19-6.71-4.11-10.65-5.21
			c-24.85-6.96-49.65-14.09-74.47-21.17c12-9.35,24-18.69,35.99-28.03c5.6,2.7,6.02,8.77,8.06,13.45c3.57,8.22,9.4,11.61,17.9,13.2
			c18.59,3.49,34.02-3.14,48.75-13.24c3.25-2.22,6.69-6.18,10.8-4.21c4.21,2.02,3.18,7.05,3.17,11.08
			c-0.01,6.8,0.01,13.61-0.18,20.4c-0.15,5.27,3.01,9.52,7.26,9.32c12.64-0.61,20.18,8,29.2,14.09c-3.58,7.15-2.15,9.8,6.61,10.39
			c19.5,1.32,38.9,4.07,58.34,6.24c-4.39,3.98-8.76,7.97-13.18,11.91c-1.65,1.47-4.23,3.26-0.29,4.44
			c14.74,4.42,29.86,10.89,44.97,3.72c6.68-3.17,12.15-4.01,19.1-2.83c18.64,3.16,37.4,5.61,56.12,8.33c0,0,0.2,0.07,0.2,0.07
			c-5.78,5.47-13.32,10.2-7.64,20.13c1.31,2.29-1.15,3.3-2.71,4.21c-6.03,3.51-5.52,7.74-1.92,12.81c2.87,4.03,4.71,8.55,3.99,13.72
			c-15.92-1.07-31.86-1.83-47.73-3.38c-5.71-0.56-8.42-6.11-9.55-10.89c-4.21-17.82-7.63-20.7-26-15.29
			c-24.88,7.34-47.67,3.21-69.36-9.78c-3.64-2.18-6.64-5.42-9.94-8.16c5.16-2.94,10.42-1.34,15.72-0.48
			c5.38,0.87,9.68-0.34,11.08-6.49c1.33-5.87-0.35-10.25-6.38-11.96C571.23,217.11,558.52,215.06,545.51,218.36z"/>
		<path fill="#160101" d="M817.15,436.14c6.6-11.49,19.44-8.89,29.31-12.99c8.27-3.43,16.46-6.49,7.75-17.97
			c-3.55-4.68,1.98-9.65,3.89-14.09c2.11-4.91,3.15-8.95-0.07-13.59c-3.51-5.04,0.47-8.79,2.93-12.4c2.32-3.4,5.98-2.11,8.86-0.6
			c6.85,3.6,14.31,6.33,17.71,14.5c1.95,4.69,5.21,6.56,9.99,2c3.27-3.12,7.56-5.15,11.36-7.72c5.91-4,5.89-8.08,0.82-13.12
			c-4.74-4.72-9.84-9.32-12.33-15.85c10.08-2.73,20.15-5.46,30.23-8.2c16.79,8.9,33.58,17.81,50.36,26.71
			c-3.82,2.03-7.63,4.05-11.44,6.08c-2.75-0.43-5.51-0.85-8.26-1.28c-1.82-0.55-3.62-1.2-5.47-1.65
			c-22.36-5.45-24.76-3.75-27.17,18.65c-0.25,2.29,2.04,6.82-3.75,5.84c-7.46-1.26-6.11,2.67-5.2,7.7
			c4.28,23.71,8.16,47.49,12.06,71.27c0.95,5.77-0.43,8.88-7.51,6.86c-3.78-1.07-9.72-2.89-11.39,2.6
			c-2.74,9.02-4.82,18.03,4.19,26.16c7.72,6.97,17.82,13.66,14.56,26.97c-21.24-14.66-42.49-29.32-63.74-43.98
			c8.26,0.42,16.53,0.77,24.79,1.32c2.38,0.16,5.86,1.54,5.95-1.89c0.31-12.56-3.5-24.21-10.57-34.48
			c-5.26-7.65-13.35-10.28-22.32-8.47c-5.25,1.06-11.26,2.25-15.13,5.52c-8.62,7.29-19.36,5.95-28.96,8.09
			c-8.2,1.83-5.38-6.19-4.89-10.96C815.44,443.68,817.94,440.42,817.15,436.14z"/>
		<path fill="#8C1308" d="M966.51,368.9c3.81-2.03,7.63-4.05,11.44-6.08c35.44,13.6,70.88,27.21,106.32,40.81
			c-0.28,1.22-0.57,2.45-0.85,3.67c-13.45-4.23-26.91-8.45-40.36-12.67c-5.45-2-11.13-3.52-16.29-6.1
			c-8.48-4.24-15.91-4.04-22.58,3.17c-1.16-0.01-2.33-0.03-3.49-0.04c-20.19-12.52-31.27-10.46-35.88,6.67l-0.25,0.13
			c-1.52,0.42-3.04,0.84-4.56,1.26c-12.71-2.23-17.06,4.31-17.91,15.95c-0.86,11.8,0.98,23.33,1.86,34.97
			c-0.23,7.02-0.31,14.05-0.72,21.06c-0.48,8.23,4.89,12.54,11.37,11.37c13.15-2.36,11.37,6.06,11.66,13.53
			c0.19,4.86,0.18,9.73,0.25,14.6c-2.44,5.49-4.87,10.98-7.31,16.47c-2.24,2.43-7.93,0.46-7.71,6.03
			c-3.86,6.12-3.19,17.72-11.13,17.81c-7.33,0.08-7.48-11.1-10.87-17.27c-0.38-0.69-0.63-1.46-0.94-2.2
			c3.25-13.3-6.84-20-14.56-26.97c-9.01-8.13-6.92-17.14-4.19-26.16c1.67-5.5,7.61-3.68,11.39-2.6c7.09,2.02,8.46-1.09,7.51-6.86
			c-3.9-23.78-7.78-47.56-12.06-71.27c-0.91-5.03-2.26-8.97,5.2-7.7c5.78,0.98,3.5-3.55,3.75-5.84c2.41-22.4,4.81-24.1,27.17-18.65
			c1.85,0.45,3.64,1.09,5.47,1.64c2.57,4.06-8.5,10.08,1.56,12.69c3.61,0.94,9.89,0.96,11.34-1.12
			C973.73,375.49,968.22,372.43,966.51,368.9z"/>
		<path fill="#A4230F" d="M920.04,788.78c-15.05,6.58-30.45,11.94-47.2,11.13c-36.16-1.75-54.18-26.59-64.86-56.09
			c-7.85-21.68-20.82-31.31-42.3-32.77c-1.09-0.07-2.14-0.79-3.2-1.2c0.87-0.6,1.69-1.29,2.61-1.8c17.23-9.49,40.9-2.35,53.83,17.18
			c5.82,8.78,9.54,18.91,14.83,28.08c12.28,21.29,28.93,26.55,50.96,15.87c49.01-23.75,67.27-65.45,67.58-117.24
			c0.16-26.11-0.21-52.22-0.34-78.33c2.37,0,4.75-0.01,7.12-0.01c1.32,1.19,2.64,2.39,3.97,3.58c1.72,30.3-4.17,61.13,6.43,90.85
			c0.69,1.93-0.32,4.87-1.33,6.95c-15.25,31.58-30.62,63.09-45.97,94.62C921.46,776.01,920.75,782.39,920.04,788.78z"/>
		<path fill="#C77422" d="M323.05,367.3c-0.45-24.47-0.9-48.94-1.35-73.41c1.5,7.92,2.95,15.85,4.56,23.74
			c0.34,1.67,1.23,3.24,1.87,4.85c1.14-1.04,2.41-1.98,3.42-3.15c19.98-23.28,44.11-24.89,67.79-5.65
			c16.78,13.62,30.29,33.79,56.24,31.07c-12.59,8.06-25.17,16.13-37.76,24.19c-1.12-1.46-2.79-2.76-3.25-4.41
			c-2.62-9.23-7.56-10.46-15.51-5.62c-18.46,11.25-39.78,13.42-60.08,19.08C326.91,381.35,323.06,378.8,323.05,367.3z"/>
		<path fill="#C77422" d="M922.17,769.62c15.35-31.53,30.73-63.04,45.97-94.62c1.01-2.09,2.02-5.02,1.33-6.95
			c-10.61-29.72-4.71-60.55-6.43-90.85c3.29-2.23,9.58-6.17,9.42-6.45c-7.14-12.57,5.78-16.29,10.25-23.46
			c2.5-4.01,3.6-7.56-0.44-10.69c-7.15-5.53-8.12-12.89-7.43-21.11c0.19-2.26,0.02-5.54-1.38-6.72c-2.75-2.34-4.54,1.62-6.93,2.44
			c-0.08-4.87-0.07-9.74-0.26-14.6c-0.29-7.48,1.49-15.89-11.66-13.53c-6.48,1.16-11.85-3.15-11.37-11.37
			c0.41-7.01,0.49-14.04,0.72-21.07c2.45,0.03,4.9,0.06,7.35,0.08c23.72,0.16,23.99,0.23,17.65,22.47
			c-2.09,7.35,2.49,8.62,6.93,8.28c5.73-0.44,11.32-2.82,16.97-4.37c0.36-0.05,0.71-0.1,1.07-0.13c0.76,3.28,1.51,6.56,2.27,9.84
			c-3.61,26.1-1.67,52.41-3.13,78.6c-3.39,1.74-4.46,4.65-5.61,8.26c-6.2,19.47-3.79,40.09-8.26,59.61
			c-2.77,12.11,0.31,18.74,11.76,22.16c-0.59,6.07-0.39,12.48-6.72,16.14c-2.85,4.06-10.72-7.09-11.3,3.63
			c-0.65,11.83-1.07,23.68-1.59,35.52c-3.78,11.02-7.56,22.05-11.34,33.07c0,0-0.07,0.1-0.07,0.1c-0.56,0.47-1.13,0.95-1.69,1.42
			c-1.54,0.8-3.09,1.6-4.63,2.39c-8.72-6.87-10.9-2.58-10.18,6.09C944.82,770.5,934.59,771.49,922.17,769.62z"/>
		<path fill="#C77422" d="M562.39,193.94c-9.02-6.09-16.56-14.7-29.2-14.09c-4.25,0.2-7.42-4.05-7.26-9.32
			c0.19-6.8,0.18-13.6,0.18-20.4c0-4.03,1.04-9.06-3.17-11.08c-4.11-1.97-7.55,1.99-10.8,4.21c-14.73,10.09-30.16,16.72-48.75,13.24
			c-8.49-1.59-14.33-4.98-17.9-13.2c-2.03-4.68-2.46-10.76-8.06-13.45c8.57-5.91,17.13-11.81,25.7-17.72
			c2.34-0.5,4.66-1.17,7.03-1.47c6.33-0.82,20.93,9.88,13.57-9.92c-0.39-1.05,1.78-3.05,2.75-4.61
			c13.83-11.04,26.9-10.36,35.87,3.94c12.24,19.52,31.23,34.77,37.4,58.08C562.86,169.86,564.76,181.77,562.39,193.94z"/>
		<path fill="#C77422" d="M1400.41,637.14c-1.91-1.12-3.83-2.24-5.74-3.36c2.43-0.91,4.79-2.18,7.3-2.67
			c21.07-4.06,43.39,2.91,63.64-5.35c14.98-6.11,29.19-12.84,45.87-13.5c6.15-0.24,3.98-8.12,4.79-12.81
			c19.25-20.02,33.68-42.34,35.16-71.2c0.83-16.22-10.13-28.19-14.62-42.48c-2.35-7.48-5.98-14.55-9.03-21.81
			c2.27-6.22,8.81-10.42,8.5-17.87c7.71-5.77,8.52,0.48,10.53,5.69c1.24,3.21,1.93,7.74,7.22,7.26
			c4.74,30.16,14.6,59.34,13.53,90.64c-1.49,43.67-29.73,71.19-63.5,82.91C1469.99,644.41,1435.15,639.77,1400.41,637.14z"/>
		<path fill="#8C1308" d="M401.44,157.88c24.82,7.08,49.62,14.22,74.47,21.17c3.94,1.1,7.81,2.02,10.65,5.21
			c-25.35-1.89-50.58-2.58-75.04,6.37c-4.36,1.6-8.83,1.46-4.34,8.25c2.93,4.43-2.62,5.97-5.64,6.79
			c-8.55,2.34-16.49,2.11-22.69,12.49c-4.09,6.84-18.75,5.9-29.01,6.61c-16.57,1.16-30.53-4.59-42.53-15.96
			c-1.91-1.8-3.39-6.23-7.74-3.91c-5.44-6.39-4.54-9.92,3.65-13.83c20.14-9.64,40.15-17.35,63.17-12.21
			c5.93,1.32,9.82-4.98,14.6-7.81C387.97,166.92,394.64,162.29,401.44,157.88z"/>
		<path fill="#EBB58D" d="M1331.75,519.21c-3.96,12.62-13.82,14.05-25.16,14.25c-3.82,0.07-6.69,4.31-4.83,9.25
			c-12.15,1.98-23.65-3.06-35.6-3.29c-22.92-4.26-43.22-12-50.24-37.51c3.09,0.4,6.17,0.79,9.26,1.18c0.38,0.3,0.81,0.49,1.29,0.57
			c1.76,0.29,3.52,0.59,5.28,0.88c3.86,1.93,7.94,3.53,11.56,5.85c26.77,17.2,28.47,17.26,53.55-2.15c2.83-2.19,9.5-4.97,6.82-7.78
			c-2.55-2.68-9.78-2.06-13.87,2.46c-0.91,1-1.82,2.44-2.97,2.72c-5.42,1.37-11.36,4.18-16.26,2.99c-3.84-0.94,1.24-5.49,1.63-8.57
			c0.63-5.02-3.26-3.28-5.48-3.36c-12.21-0.44-24.43-0.68-36.64-0.98c-6.81-5.47-14.42-8.65-23.28-9.23
			c-9.64-0.63-19.23-1.95-28.84-2.97c-0.64-1.13-1.27-2.25-1.91-3.38c0.59-6.59,4.33-9.43,10.81-9.42
			c9.24,0.02,18.47-0.18,27.71-0.28c9.59,1.99,19.19,3.98,28.78,5.96c-5.99,3.3-1.32,4.58,1.29,5.07
			c28.08,5.24,55.14,17.16,84.82,12.05c9.84-1.69,20.03-1.45,30.07-1.92c1.27-0.06,2.59,0.96,3.89,1.49
			c-1.07,0.7-2.05,1.76-3.22,2.03c-9.45,2.21-18.93,4.28-28.4,6.39c-5.85,1.16-12.28-1.66-17.67,2.6
			c4.73,5.95,8.68,12.81,17.03,14.55C1331.4,518.7,1331.56,519.02,1331.75,519.21z"/>
		<path fill="#C77422" d="M1085.7,691.56c11.66,10.17,15.37,24.93,19.43,38.47c5.95,19.82,20.07,33.6,31.04,49.75
			c-14.23-2.18-28.47-4.35-42.7-6.53c-23.63-26.42-42.32-56.2-59.52-87.01c0.8-13.67-1.88-28.2,9.63-39.25
			c5.27,10.83,10.57,21.66,15.8,32.51c1.31,2.7,3.03,6.98,5.99,5.23C1075.33,678.85,1080,686.24,1085.7,691.56z"/>
		<path fill="#A4230F" d="M455.57,344.74c-25.95,2.72-39.46-17.45-56.24-31.07c-23.68-19.23-47.81-17.63-67.79,5.65
			c-1,1.17-2.27,2.1-3.42,3.15c-0.64-1.61-1.53-3.17-1.87-4.85c-1.6-7.9-3.05-15.83-4.56-23.74c-1.22-15.97-2.44-31.95-3.66-47.93
			c5.95,3.51,11.89,7.03,17.84,10.55c12.5,6.49,24.9,13.21,37.54,19.43c24.08,11.85,45.79,27.27,67.16,43.33
			c7.48,5.62,15.65,10.34,23.59,15.33c3.28,2.06,6.89,3.7,4.59,8.61C464.36,343.71,459.96,344.23,455.57,344.74z"/>
		<path fill="#A4230F" d="M1176.07,480.14c0.64,1.13,1.27,2.25,1.91,3.38c-1,3.29-2,6.58-3,9.87c-12.25-0.52-20.19-9.67-30.04-15
			c-30.1-16.28-59.93-33-85.2-56.56c2.48-3.25,0.95-9.01,6.5-10.32c7.12,3.44,14.24,6.87,21.36,10.31
			c-2.12,8.49-4.04,16.82,7.79,20.01c3.63,0.98,7.64,1.97,10.47,4.21c8.45,6.7,11.47-1.18,14.99-5.57c5.01-6.25-2.76-7.48-5.48-9.78
			c-3.31-2.8-8-3.98-12.09-5.87c-2.92-9.17-13.43-9.92-18.52-16.68c-0.29-0.4-0.59-0.79-0.88-1.19l-0.46,0.36
			c0.28-1.22,0.57-2.45,0.85-3.67c5.43-0.02,10.87-0.04,16.3-0.06c6.08,5.7,12.52,11.06,18.15,17.17
			c9.38,10.16,19.98,16.36,34.33,13.36c11.83,1.84,21.3,9.02,31.73,14.03c-2.42,1.49-4.85,2.97-7.27,4.46
			c-6.28,3.39-11.89,8.23-19.42,8.91c5.74,6.1,11.47,12.2,17.22,18.28C1175.52,479.97,1175.83,480.03,1176.07,480.14z"/>
		<path fill="#A4230F" d="M1043.58,646.99c-11.51,11.05-8.83,25.58-9.63,39.25c-11.05-14.84-22.45-29.18-42.98-30.83
			c-11.45-3.42-14.53-10.05-11.76-22.16c4.47-19.52,2.06-40.14,8.26-59.61c1.15-3.61,2.22-6.52,5.61-8.26c0,0,0.61-0.01,0.61-0.01
			l0.61,0.05c0.23,5.92,1.3,9.66,8.36,5c4.39-2.9,9.61-4.54,14.46-6.74c3.43,2.12,6.57,4.46,6.81,9
			c-4.08,3.14-10.68,1.52-13.46,7.11c-2.04,6.19-3.6,12.59-6.22,18.52c-3.84,8.69-2.38,14.37,5.84,20.27
			C1021.95,627.09,1032.48,637.43,1043.58,646.99z"/>
		<path fill="#A4230F" d="M1252.93,324.99c-19.74-16.39-41.1-16.93-63.86-7c-13.6,5.93-27.52,11.13-41.3,16.66
			c-2.55-5.31,3.43-8.24,3.58-12.8c18.1-11.41,35.71-23.75,55.62-31.91c36.42-14.92,68.98,0.8,83.26,39.8
			c-2.59,3.87-5.18,7.75-7.77,11.62c-3.99,3.13-3.32,9.97-9.24,11.57c-0.74-5.32-1.49-10.63-2.19-15.95
			c-0.11-0.8,0.01-1.63-0.02-2.45c-0.24-6.99-0.49-13.98-0.73-20.97C1264.49,317.37,1258.71,321.18,1252.93,324.99z"/>
		<path fill="#C77422" d="M725.97,287.1c0.73-5.17-1.12-9.69-3.99-13.72c-3.61-5.06-4.11-9.3,1.92-12.81
			c1.56-0.91,4.02-1.92,2.71-4.21c-5.68-9.93,1.86-14.66,7.64-20.13c34.19,9.72,65.64,25.86,97.32,41.45
			c-5.92-0.13-11.84-0.22-17.76-0.42c-4.7-0.16-8.59,0.68-10.3,5.95c-0.49,1.51-2.37,3.62-3.68,3.66
			C775.22,287.67,750.59,290.74,725.97,287.1z M744.26,257.82c0-0.1-0.01-0.2-0.01-0.3c-4.48,0.28-8.96,0.56-13.45,0.84
			c2.64,4.39,7.85,3.96,11.67,6.15c2.56,1.46,5.48,2.26,8.16,3.52c2.78,1.31,5.13,1.56,6.85-1.6c1.12-2.06,3.68-4.26,3.37-5.99
			c-0.61-3.37-4.48-2.05-6.89-2.49C750.83,257.4,747.51,257.82,744.26,257.82z"/>
		<path fill="#A4230F" d="M1215.93,501.9c7.02,25.51,27.32,33.26,50.23,37.51c2.32,1.5,2.4,3.08,0.15,4.73
			c-8.82-0.72-17.65-1.43-26.48-2.15c-51.4-9.28-98.6-31.27-147.34-48.61c9.81-12.09,22.64-8.75,35.05-6.57
			c12.55,2.21,20.77,14.55,34.17,15.03c6.72,6.53,16.22,5.67,24.21,8.9c2.5,1.01,6.28,3.91,8.87,0.71c2.23-2.76-0.35-6.14-0.88-9.26
			c-0.47-2.75-4.18-8.44,1.25-7.6C1202.16,495.69,1210.44,495.6,1215.93,501.9z"/>
		<path fill="#EBB58D" d="M1043.58,646.99c-11.1-9.56-21.64-19.9-33.49-28.41c-8.22-5.9-9.68-11.58-5.84-20.27
			c2.62-5.93,4.18-12.33,6.22-18.52c6.16,2.26,9,8.23,13.65,12.16c9.03,7.62,14.56,18.98,25.9,24.11
			c14.93,23.74,31.34,46.78,35.68,75.51c-5.7-5.33-10.38-12.72-20.32-6.84c-2.96,1.75-4.69-2.53-5.99-5.23
			C1054.15,668.65,1048.86,657.82,1043.58,646.99z"/>
		<path fill="#C77422" d="M1331.82,501.51c9.47-2.11,18.95-4.18,28.4-6.39c1.17-0.27,2.15-1.34,3.22-2.03
			c-1.3-0.52-2.62-1.55-3.89-1.49c-10.04,0.47-20.22,0.22-30.07,1.92c-29.67,5.11-56.74-6.8-84.82-12.05
			c-2.61-0.49-7.28-1.77-1.29-5.07c19.38,4.36,38.71,8.94,58.15,13c17.66,3.69,35.21-1.51,52.85-1.6c2.24-0.01,4.68-3.33,6.65-5.46
			c10.52-11.36,20.92-22.82,31.37-34.25c3.85,4.4,7.69,8.81,11.54,13.21c-2.83,12.32-12.04,22.16-13.61,34.97
			c0,0-0.13,0.17-0.13,0.17c-0.5,0.48-1,0.96-1.5,1.43c0,0-0.2,0.17-0.2,0.17c-0.43,0.53-0.87,1.05-1.3,1.58c0,0-0.17,0.2-0.17,0.2
			c-0.55,0.35-1.1,0.71-1.65,1.06c-15.12,6.49-30.25,12.98-45.38,19.47C1339.77,512.98,1348.68,501.68,1331.82,501.51z"/>
		<path fill="#C77422" d="M1252.93,324.99c5.78-3.81,11.56-7.62,17.35-11.43c0.25,6.99,0.49,13.98,0.73,20.97
			c0.03,0.82-0.09,1.64,0.02,2.45c0.71,5.32,1.46,10.64,2.19,15.95c5.91-1.6,5.24-8.44,9.24-11.57c-0.26,6.08-0.52,12.15-0.78,18.23
			c-10.46,7.35-30.54,3.89-28.48,25.31c-8.79,8.63-6.09,21.59-11.82,31.37c-0.58,0.56-1.17,1.12-1.75,1.68
			c-2.55,0.02-6.15,1.41-6.39-2.68c-0.39-6.51-7.41-14.81-1.38-19.03c14.58-10.19,1.28-11.42-3.74-15.64
			c-2.34-1.97-6.26-2.49-6.27-6.66c7.2-5.29,14.65-10.28,21.53-15.95C1253.94,349.28,1256.38,337.9,1252.93,324.99z"/>
		<path fill="#C77422" d="M1223.67,599.81c21.52,5.41,41.05,15.48,60.42,25.89c-1.57-0.08-3.14-0.16-4.72-0.23
			c-1.68-0.4-3.35-0.8-5.03-1.2c-1.31,0.21-2.61,0.42-3.92,0.63c1.07,1.58,1.85,3.53,3.27,4.7c13.64,11.15,30.92,15.28,46.03,23.61
			c1.77,0.97,3.33,2.31,4.99,3.48c-1.87-0.13-3.74-0.23-5.6-0.38c-4.57-0.36-9.14-0.74-13.72-1.11c0,0,0.09,0.12,0.09,0.12
			c-1.12-0.66-2.24-1.33-3.36-1.99c-30.82-16.4-65.88-19.25-98.24-30.74c5.14-1.95,4.65-4.96,1.6-8.46
			c1.33-4.05,3.21-7.38,8.36-6.53c7.11,1.83,14.23,3.65,21.34,5.49c1.6,0.41,3.51,2.72,4.59-0.4c0.86-2.47-1.5-2.96-2.98-4.1
			C1232.63,605.35,1226.05,605.71,1223.67,599.81z"/>
		<path fill="#A4230F" d="M1093.47,773.25c14.23,2.18,28.47,4.35,42.7,6.53c14.91,8.89,29.81,17.77,44.72,26.66
			c4.64,5.25,13.35,5.01,16.52,12.25C1152.51,826.97,1121.46,803.61,1093.47,773.25z"/>
		<path fill="#EBB58D" d="M1099.21,869.97c-20.23,2.68-40.46,4.93-60.81,1.21c4.64-2.51,10.92-3.57,12.57-9.12
			c1.02-3.42-4.5-1.44-6.04-3.64c45.97-5.53,91.95-11.06,137.92-16.6c4.3-0.52,8.6-1.08,12.9-1.61c6.85-0.84,8.72,1.65,5.15,7.74
			c-3.72,0.73-7.42,1.77-11.17,2.12c-23.52,2.24-45.93,15.42-70.87,5.24C1109.89,851.66,1098.02,862.21,1099.21,869.97z"/>
		<path fill="#C77422" d="M1044.92,858.42c1.55,2.2,7.06,0.22,6.04,3.64c-1.65,5.55-7.93,6.61-12.57,9.12
			c-32.84,2.07-65.61,4.1-96.84-10.12c-4.73-2.15-10.6-1.82-15.95-2.64c1.22-1.08,4.63,1.06,3.96-1.94c-0.3-1.35-3.58-2.03-5.5-3.02
			c3.42-0.54,6.83-1.31,10.27-1.59c15.03-1.18,30.07,4.41,45.1-0.07C1001.26,854.01,1023.09,856.21,1044.92,858.42z"/>
		<path fill="#C77422" d="M1099.21,869.97c-1.19-7.76,10.68-18.31,19.64-14.65c24.94,10.18,47.35-3,70.87-5.24
			c3.76-0.36,7.45-1.4,11.17-2.12c20.57-3.78,41.15-7.57,61.72-11.35c-1.15,8.66-11.48,8.17-14.72,14.74
			c-14.82,7.56-31.31,6.23-47.08,8.49C1167.11,864.66,1133.3,868.87,1099.21,869.97z"/>
		<path fill="#A4230F" d="M1554.04,459.04c-5.29,0.48-5.98-4.04-7.22-7.26c-2.01-5.21-2.82-11.46-10.53-5.69
			c-3.96-2.76-7.91-5.53-11.86-8.29c9.34-22.25,1.01-41.93-8.85-61.42c-1.46-2.88-2.43-6-3.62-9.01c7.05,2.1,14.1,4.19,21.15,6.29
			c0,0,0.2,0.16,0.2,0.16c0.31,0.54,0.61,1.09,0.92,1.63C1540.83,403.32,1547.43,431.18,1554.04,459.04z"/>
		<path fill="#160101" d="M635.47,446.05c24.03-4.96,45.72,6.19,68.31,10.48c27.06,5.13,53.65,12.7,80.53,18.86
			c5.99,1.37,9.46,7.61,15.99,7.33c0.53,0.07,1.09,0.15,1.65,0.22c-31.72,5.04-59.95-9.89-89.57-16.31
			C686.51,461.02,660.3,455.9,635.47,446.05z"/>
		<path fill="#EBB58D" d="M323.05,367.3c0.02,11.5,3.87,14.05,15.92,10.69c20.3-5.65,41.62-7.83,60.08-19.08
			c7.95-4.84,12.89-3.61,15.51,5.62c0.47,1.64,2.14,2.95,3.25,4.41c-15.48,5.93-30.21,13.9-47.33,15.21
			c-5.96,0.46-11.71,3.93-17.53,6.07C331.63,398.06,321.16,390.04,323.05,367.3z"/>
		<path fill="#EBB58D" d="M1221.86,373.93c0.02,4.17,3.94,4.69,6.27,6.66c5.02,4.23,18.31,5.45,3.74,15.64
			c-6.04,4.22,0.99,12.52,1.38,19.03c0.24,4.1,3.85,2.71,6.39,2.68c-6.02,2.67-12.04,5.34-18.06,8.01c-0.3-4.8-4.83-5.65-7.61-8.13
			c-2.38-1.3-4.76-2.6-7.13-3.9c3.01-3.16,8.61-5.32,7.89-9.83c-0.27-1.71-7.46-2.44-11.55-3.36c-2.58-0.58-5.27-0.7-7.92-1.02
			c-1.2-6.41,7.28-10.76,3.77-17.66C1206.64,379.34,1214.25,376.63,1221.86,373.93z"/>
		<path fill="#C77422" d="M734.06,236.16c-18.71-2.73-37.48-5.17-56.12-8.33c-6.96-1.18-12.42-0.34-19.1,2.83
			c-15.11,7.17-30.23,0.71-44.97-3.72c-3.94-1.18-1.36-2.98,0.29-4.44c4.42-3.94,8.79-7.94,13.18-11.91
			C662.91,219.1,698.48,227.63,734.06,236.16z"/>
		<path fill="#EBB58D" d="M1153.07,434.1c-14.36,3-24.96-3.19-34.33-13.36c-5.63-6.11-12.08-11.47-18.15-17.17
			c8.85,0.01,17.7,0.02,26.56,0.03c2.88,9.56,9.33,11.47,18.17,8.62c6.3-2.03,12.53-5.2,19.41-2.12c1.47,4.8-2.55,11.34,4.56,14.34
			C1163.87,427.66,1158.47,430.88,1153.07,434.1z"/>
		<path fill="#EBB58D" d="M1281.69,359.59c0.26-6.08,0.52-12.15,0.78-18.23c2.59-3.87,5.18-7.75,7.77-11.62
			c6.26,17.22,5.56,34.34-5.35,49.01c-11.54,15.51-25.89,28.61-43.49,37.52c5.73-9.78,3.03-22.74,11.82-31.37
			c12.05-2.23,24.57-3.78,27.73-18.98c0.28-1.2,0.55-2.4,0.83-3.6C1281.74,361.41,1281.71,360.5,1281.69,359.59z"/>
		<path fill="#A4230F" d="M1164.71,410.1c-6.88-3.08-13.11,0.09-19.41,2.12c-8.84,2.85-15.29,0.93-18.17-8.62
			c23.96-7.19,47.93-14.37,71.89-21.56c3.51,6.9-4.97,11.25-3.76,17.66C1185.08,403.17,1174.89,406.63,1164.71,410.1z"/>
		<path fill="#8C1308" d="M1403.92,461.29c-3.85-4.41-7.69-8.81-11.54-13.21c0.13-3.1,0.27-6.19,0.4-9.28
			c0.22-1.33,0.45-2.67,0.67-4.02c0.12-11.92,4.69-23.47,2.88-35.57c-1.2-8.02-4.32-15.02-10-20.93c-1.13-1.18-4.94-2.16-2.25-4.7
			c1.95-1.84,5.46-2.5,7.31,0.18c6.27,9.05,14.44,16.97,17.31,28.11c-1.35,19.09-2.69,38.19-4.04,57.29
			c-0.14,0.51-0.28,1.02-0.42,1.52L1403.92,461.29z"/>
		<path fill="#C77422" d="M1197.41,818.69c-3.16-7.24-11.88-6.99-16.52-12.25c22.45-4,44.88-8.14,67.39-11.8
			c2.43-0.39,6.79-4.54,7.91,0.57c0.77,3.54-2.2,6.84-6.55,8.08C1232.2,808.31,1214.82,813.54,1197.41,818.69z"/>
		<path fill="#A4230F" d="M979.43,851.81c-15.03,4.48-30.07-1.11-45.1,0.07c-3.44,0.27-6.85,1.04-10.27,1.59
			c1.93,0.99,5.21,1.67,5.5,3.02c0.67,3.01-2.75,0.86-3.96,1.94c-7.52,0.01-13.71-3.3-18.68-8.52c-2.28-2.4-5.96-4.89-2.79-9.72
			c2.83-4.32,5.74-5.57,10.75-4.29C936.36,841.36,957.91,846.53,979.43,851.81z"/>
		<path fill="#C77422" d="M1153.07,434.1c5.4-3.22,10.8-6.44,16.2-9.66c12.52-3.51,25.04-7.01,37.56-10.52
			c2.38,1.3,4.76,2.6,7.13,3.9c-8.56,2.07-13.15,8.91-18.23,15.16c-3.65,5.05-7.29,10.1-10.93,15.15
			C1174.37,443.12,1164.9,435.94,1153.07,434.1z"/>
		<path fill="#EBB58D" d="M1404.65,459.16c1.35-19.1,2.69-38.19,4.04-57.29c8.13,29.16,12.57,58.02-6.95,84.9
			c-2.98,4.1-5.59,8.79-11.45,9.49c1.57-12.81,10.78-22.65,13.61-34.97c0,0,0.32-0.61,0.32-0.61
			C1404.37,460.18,1404.51,459.67,1404.65,459.16z"/>
		<path fill="#C77422" d="M1176.07,480.14c-0.25-0.12-0.55-0.17-0.73-0.36c-5.75-6.09-11.49-12.19-17.22-18.28
			c7.53-0.68,13.14-5.52,19.42-8.91c7.39,8.23,18.66,8.41,27.68,13.27c3.06,1.65,6.25,3.06,9.38,4.57
			c-9.24,0.1-18.47,0.3-27.71,0.28C1180.4,470.71,1176.67,473.56,1176.07,480.14z"/>
		<path fill="#C77422" d="M1266.32,544.15c2.25-1.65,2.17-3.23-0.15-4.73c11.95,0.23,23.45,5.27,35.6,3.29c0,0,0.24,0.08,0.24,0.08
			c3.75,2.12,7.74,1.34,11.69,0.96c1.6,0.11,3.21,0.22,4.81,0.33c2.77,1.05,5.56,2.02,8.29,3.16c4.64,1.94,9.23,3.99,13.84,6
			c-3.18,4.52-9.06-0.32-12.42,3.58C1307.48,553.11,1286.22,551.94,1266.32,544.15z"/>
		<path fill="#EBB58D" d="M1328.22,556.82c3.36-3.9,9.24,0.94,12.42-3.58c-4.61-2.01-9.2-4.06-13.84-6
			c-2.73-1.14-5.52-2.11-8.29-3.16c27.16-1.15,53.12,6.91,79.68,10.42c1.12,0.15,2.1,1.3,3.15,1.99c-1.27,0.17-2.54,0.5-3.81,0.5
			C1374.43,556.95,1351.33,556.88,1328.22,556.82z"/>
		<path fill="#C77422" d="M1050.02,616.05c-11.34-5.12-16.86-16.49-25.9-24.11c-4.65-3.92-7.49-9.89-13.65-12.16
			c2.78-5.6,9.38-3.97,13.46-7.11c2.66,1.25,5.32,2.49,7.97,3.73c1.53,2.81,3.07,5.62,4.6,8.43
			C1036.45,597.22,1046.82,605.08,1050.02,616.05z"/>
		<path fill="#C77422" d="M927.6,336.11c-10.07,2.73-20.15,5.46-30.23,8.2c-11.59-6.6-5.59-15.87-3.72-24.51
			C904.97,325.23,916.28,330.67,927.6,336.11z"/>
		<path fill="#A4230F" d="M971.37,710.7c0.52-11.84,0.94-23.68,1.59-35.52c0.59-10.72,8.46,0.43,11.3-3.63
			c2.25,13.2,2.36,25.92-8,36.33C974.63,708.82,973,709.76,971.37,710.7z"/>
		<path fill="#A4230F" d="M1036.5,584.84c-1.53-2.81-3.07-5.62-4.6-8.43c-0.56-5.67-1.11-11.33-1.67-17
			c7.29,2.52,15.53,3.59,20.95,9.41c3.14,3.36,5.31,8.7,2.97,13.6c-2.45,5.12-7.96,3.4-12.33,4.08
			C1040.05,585.95,1038.28,585.39,1036.5,584.84z"/>
		<path fill="#EBB58D" d="M922.17,769.62c12.42,1.87,22.65,0.89,21.28-15.84c-0.71-8.67,1.46-12.96,10.18-6.09
			c-4.62,19.06-17.08,31.73-33.58,41.1C920.75,782.39,921.46,776.01,922.17,769.62z"/>
		<path fill="#A4230F" d="M1331.82,501.51c16.86,0.17,7.95,11.47,8.15,18.83c-2.74-0.38-5.47-0.76-8.21-1.14
			c-0.19-0.19-0.36-0.5-0.58-0.55c-8.35-1.73-12.3-8.59-17.03-14.55C1319.54,499.85,1325.97,502.67,1331.82,501.51z"/>
		<path fill="#EBB58D" d="M971.37,710.7c1.63-0.94,3.26-1.88,4.89-2.82c-1.4,6.16-0.19,12.17,0.5,18.32
			c1.35,12.02-4.05,18.47-16.73,17.58C963.8,732.75,967.59,721.73,971.37,710.7z"/>
		<path fill="#C77422" d="M959.07,573.6c-2.37,0-4.75,0.01-7.12,0.01c0.59-10.77,1.31-21.54,1.69-32.33
			c0.09-2.58,2.07-6.06-2.12-7.6c-0.22-5.57,5.47-3.6,7.71-6.03C959.18,542.97,959.12,558.29,959.07,573.6z"/>
		<path fill="#C77422" d="M1151.35,321.85c-0.15,4.56-6.12,7.49-3.58,12.8c-9.73,4.23-19.45,8.45-29.18,12.68
			c-0.44-2.94-3-2.64-4.96-3.27C1126.21,336.66,1138.78,329.26,1151.35,321.85z"/>
		<path fill="#C77422" d="M1533.1,373.66c-7.05-2.1-14.1-4.19-21.15-6.29c-1.36-1.3-2.86-2.49-4.06-3.92
			c-3.31-3.97-11.87-9.17-9.43-11.18c5.37-4.42,10.1,3.39,14.79,6.38C1520.22,363.1,1526.51,368.6,1533.1,373.66z"/>
		<path fill="#A4230F" d="M486.48,96.12c-0.98,1.56-3.15,3.56-2.75,4.61c7.36,19.8-7.25,9.1-13.57,9.92
			c-2.37,0.31-4.69,0.97-7.03,1.47C470.15,105.67,477.72,100.03,486.48,96.12z"/>
		<path fill="#A4230F" d="M1195.74,432.98c5.08-6.25,9.67-13.09,18.23-15.16c2.78,2.48,7.31,3.33,7.61,8.13
			C1212.97,428.29,1204.35,430.64,1195.74,432.98z"/>
		<path fill="#EBB58D" d="M1524.42,437.8c3.95,2.76,7.91,5.53,11.86,8.29c0.32,7.45-6.22,11.65-8.5,17.87
			C1525.16,455.44,1523.98,446.72,1524.42,437.8z"/>
		<path fill="#A4230F" d="M1113.64,344.07c1.96,0.62,4.52,0.33,4.96,3.27c-4.91,2.11-9.79,4.3-14.75,6.28
			c-2.18,0.87-4.76,2.12-6.18-1.14c-1.6-3.67,1.56-3.88,3.7-4.59C1105.44,346.54,1109.55,345.33,1113.64,344.07z"/>
		<path fill="#EBB58D" d="M1313.71,543.75c-3.96,0.38-7.94,1.16-11.69-0.96C1305.91,543.11,1309.81,543.43,1313.71,543.75z"/>
		<path fill="#EBB58D" d="M1292.24,737.2c1.04,0.17,2.09,0.34,3.13,0.5c-0.12,0.21-0.32,0.62-0.36,0.61
			c-0.92-0.37-1.82-0.78-2.72-1.18C1292.3,737.14,1292.24,737.2,1292.24,737.2z"/>
		<path fill="#C77422" d="M1393.45,434.78c-0.23,1.34-0.45,2.68-0.67,4.02C1393,437.45,1393.23,436.12,1393.45,434.78z"/>
		<path fill="#EBB58D" d="M1274.35,624.27c1.68,0.4,3.36,0.8,5.03,1.2C1277.7,625.07,1276.02,624.67,1274.35,624.27z"/>
		<path fill="#EBB58D" d="M1388.67,497.86c0.5-0.48,1-0.96,1.5-1.43C1389.67,496.91,1389.17,497.38,1388.67,497.86z"/>
		<path fill="#EBB58D" d="M1387.16,499.61c0.43-0.53,0.87-1.05,1.3-1.58C1388.03,498.56,1387.6,499.09,1387.16,499.61z"/>
		<path fill="#EBB58D" d="M1385.34,500.87c0.55-0.35,1.1-0.71,1.65-1.06C1386.44,500.17,1385.89,500.52,1385.34,500.87z"/>
		<path fill="#C77422" d="M833.45,279c-0.49-0.35-0.98-0.69-1.47-1.04C832.47,278.31,832.96,278.66,833.45,279z"/>
		<path fill="#EBB58D" d="M958.26,745.29c0.56-0.47,1.13-0.95,1.69-1.42C959.39,744.35,958.82,744.82,958.26,745.29z"/>
		<path fill="#C77422" d="M1534.22,375.46c-0.31-0.54-0.62-1.09-0.92-1.63C1533.61,374.37,1533.91,374.91,1534.22,375.46z"/>
		<path fill="#A4230F" d="M747.07,426.78c-17.28,7.97-34.95,6.26-52.86,2.53c-14.54-3.03-29.23-5.33-43.86-7.95
			c2.4-25.08,11.65-22.83,30.08-19.48c4.41,0.8,10.6,4.13,12.71,0.02c2.08-4.06-3.15-8.55-6.52-12.11
			c-12.79-13.55-30.38-18.79-46.47-26.55c-3.34-1.61-7.8-7.67-9.97-3.83c-2.74,4.84-2.96,12.24,2.14,17.44
			c1.88,1.93,4.21,3.44,6.4,5.04c4.48,3.26,10.76,3.63,14.06,8.77c-6.11,2.03-12.21,4.08-18.33,6.06c-0.75,0.24-1.7,0.35-2.43,0.13
			c-19.76-6.07-10.25,5.51-7.77,12.84c-6.59,14.92-15.55,15.53-28.94,7.08c-24.75-15.63-50.47-29.72-75.79-44.45
			c1-0.73,2.95-1.65,2.85-2.17c-3.4-17.83,7.08-9.24,13.43-6.81c25.77,9.87,51.49,10.63,77.01-0.33c5.16-2.22,14.2-3.18,13.77-9.39
			c-0.49-7.09-5.63-14.01-13.51-17.07c-1.52-0.59-3.01-1.31-4.4-2.15c-3.14-1.91-7.78-2.98-7.15-7.78c0.54-4.13,4.96-4.36,7.97-6.05
			c3.93-2.22,11.82-0.66,9.7-9.27c17.58-1.27,27.88,10.25,37.76,21.97c11.24,13.33,17.34,29.8,26.14,44.63
			c9.16,15.45,34.54,29.74,59.6,19.54c2.48-1.01,5.22-1.37,7.84-2.03C750.6,405.98,744.02,415.85,747.07,426.78z"/>
		<path fill="#C77422" d="M619.17,311.27c2.12,8.6-5.77,7.05-9.7,9.27c-3.01,1.7-7.43,1.92-7.97,6.05c-0.62,4.8,4.01,5.87,7.15,7.78
			c1.39,0.85,2.88,1.56,4.4,2.15c7.89,3.07,13.02,9.99,13.51,17.07c0.43,6.21-8.61,7.17-13.77,9.39
			c-25.52,10.95-51.24,10.2-77.01,0.33c-6.35-2.43-16.83-11.02-13.43,6.81c0.1,0.52-1.86,1.44-2.85,2.17
			c-8.31-6.57-16.62-13.15-24.92-19.72c9.25-11.06,6.93-19.51-5.57-26.08c-4.44-2.34-4.46-7.04-4.32-11.46
			c3.46-13.05,6.92-26.1,10.39-39.15c25.12-7.43,46.86-2.74,64.34,17.69c2.93,3.42,7.12,1.4,10.77,1.66
			c8.08,7.12,15.35,15.24,26.22,18.62C604.55,316.39,611.87,314.56,619.17,311.27z"/>
		<path fill="#C77422" d="M747.07,426.78c-3.04-10.92,3.53-20.79,3.45-31.39c1.5-1.83,4.56-4.01,4.24-5.43
			c-3.66-16.19,10.38-21,18.53-29.56c8.81,4.07,6.89,13.38,9.82,20.29c2.32,5.46,5.97,8.11,11.85,8.01
			c2.97-0.05,4.79-1.25,4.57-4.32c-0.87-12.4,4.69-8.17,10.51-4.26c3.81,2.56,7.93,4.67,11.91,6.98
			c3.51,15.45,5.18,30.41-10.7,40.78c-6.79-5.19-11.05,2.5-16.68,3.26c-10.52-2.26-13.37-9.81-13.54-19.36
			c-0.03-2-0.8-3.99-1.23-5.99c-1.92,0.88-4,1.52-5.73,2.67C765.02,414.51,756.06,420.66,747.07,426.78z"/>
		<path fill="#160101" d="M769.33,341.01c-19.28,1.86-31.78-8.13-45.52-13.96c-9.23-3.92-17.83-9.04-28.29-9.1
			c-3.12-0.02-5.96-1.14-5.94-5.23c0.02-3.22,0.48-6.65,4.25-6.81c19.17-0.83,36.56-10.69,55.89-10.63
			c19.75,0.06,35.58,11.68,40.96,30.8c3.4,12.11-7.48,11.79-13.85,14.71C773.9,342.12,769.85,341.01,769.33,341.01z"/>
		<path fill="#A4230F" d="M570.19,295.24c-3.65-0.25-7.84,1.77-10.77-1.66c-17.48-20.44-39.22-25.12-64.34-17.69
			c-5.59-8.6-11.4-17.07-16.69-25.86c-2.6-4.32,0.67-5.3,4.33-7.17c25.37-12.9,42.18,2.96,59.3,17.26
			c8.09,6.76,16.67,11.94,26.41,16.25C576.77,280.06,569.79,288.79,570.19,295.24z"/>
		<path fill="#C77422" d="M624.24,409.68c-2.48-7.33-11.99-18.91,7.77-12.84c0.73,0.23,1.68,0.12,2.43-0.13
			c6.12-1.98,12.22-4.03,18.33-6.06c-3.3-5.14-9.59-5.52-14.06-8.77c-2.2-1.6-4.52-3.12-6.4-5.04c-5.09-5.21-4.88-12.6-2.14-17.44
			c2.18-3.84,6.63,2.22,9.97,3.83c16.09,7.77,33.68,13,46.47,26.55c3.36,3.56,8.6,8.05,6.52,12.11c-2.11,4.12-8.3,0.78-12.71-0.02
			c-18.43-3.35-27.67-5.6-30.08,19.48C641.65,417.46,632.94,413.57,624.24,409.68z"/>
		<path fill="#A4230F" d="M821.94,387.11c-3.98-2.31-8.09-4.42-11.91-6.98c-5.82-3.91-11.39-8.14-10.51,4.26
			c0.22,3.07-1.6,4.27-4.57,4.32c-5.88,0.1-9.53-2.55-11.85-8.01c-2.93-6.91-1.01-16.23-9.82-20.29
			c15.47-5.71,30.62-13.58,46.98-1.55C832.54,367.87,833.45,376.58,821.94,387.11z"/>
		<path fill="#C77422" d="M545.51,218.36c13.01-3.3,25.73-1.25,38.3,2.31c6.03,1.71,7.71,6.09,6.38,11.96
			c-1.4,6.15-5.7,7.35-11.08,6.49c-5.29-0.85-10.56-2.46-15.72,0.48c-6.26-1.63-12.58-3.06-18.75-4.96
			c-4.86-1.49-9.55-3.57-14.32-5.38c4.53-3.21,9.05-6.43,13.58-9.64c0.51-0.39,1.03-0.79,1.54-1.18
			C545.44,218.44,545.51,218.36,545.51,218.36z"/>
		<path fill="#A4230F" d="M484.7,315.04c-0.14,4.43-0.12,9.13,4.32,11.46c12.5,6.58,14.82,15.02,5.57,26.08
			C480.04,340.43,476.91,328.53,484.7,315.04z"/>
		<path fill="#EBB58D" d="M794.57,431.15c5.62-0.76,9.89-8.45,16.68-3.26c-0.38,4.43,3.12,6.08,5.9,8.25
			c0.8,4.28-1.71,7.54-3.43,11.04C807.32,441.85,802.91,434.16,794.57,431.15z"/>
		<path fill="#A4230F" d="M545.44,218.44c-0.51,0.4-1.03,0.79-1.54,1.18C544.42,219.23,544.93,218.84,545.44,218.44z"/>
		<path fill="#8C1308" d="M1030.24,559.41c0.56,5.67,1.11,11.33,1.67,17c-2.66-1.24-5.32-2.48-7.97-3.73
			c-0.24-4.54-3.38-6.88-6.81-9c-7.98-4.27-15.14,2.03-22.82,1.74l-0.61-0.05c0,0-0.61,0.01-0.61,0.01
			c1.45-26.18-0.48-52.5,3.13-78.6c2.7,4.29,5.36,8.59,8.1,12.85c4.09,6.36,7.66,13.62,16.93,13.1c10-0.57,15.47-8.17,21.39-14.75
			c0.84-0.93,0.33-4.85-0.24-5.01c-16.36-4.71-30.9-14.99-48.45-16.02c-0.36,0.03-0.72,0.08-1.07,0.13
			c-0.01-2.28-0.02-4.55-0.03-6.83c0.07-10.42,5.54-9.66,13.58-7.84c10.49,2.38,20.68,11.19,32.27,3.16
			c1.87,1.54,3.54,3.51,5.65,4.56c8.89,4.43,13.33,16.74,25.8,14.65c1.75-0.29,3.33-1.56,4.99-2.37c-0.6-1.08-0.93-2.65-1.85-3.16
			c-11.97-6.63-22.52-15.79-35.72-20.25c-0.23-0.37-0.5-0.69-0.83-0.95c10.35-16.56,9.64-29.28-2.43-36.52
			c-7.14-4.28-14.68-7.88-22.04-11.79c1.74-1.61,3.48-3.23,5.22-4.84c6.73-1.79,13.47-2.87,20.25-0.19
			c3.44,2.86,5.51,7.47,10.57,8.28c2.34,4.85,7.61,5.91,11.45,8.83c25.27,23.56,55.1,40.28,85.2,56.56
			c9.84,5.33,17.79,14.48,30.03,15c-2.68,5.54-8.55,6.09-13.26,8.46c-13.41-0.48-21.62-12.82-34.18-15.03
			c-12.4-2.18-25.23-5.52-35.05,6.57c-6.92-1.2-13.83-2.43-20.76-3.57c-2.09-0.34-4.23-0.42-6.35-0.62
			c0.78,1.92,1.35,3.96,2.38,5.74c4.63,8,9.43,15.9,14.07,23.88c0.78,1.34,2.01,3.72,1.51,4.29c-2.1,2.4-2.78-1.2-4.42-1.54
			c-4.6-0.95-8.2-5.75-13.64-3.56c2.8,3.14,5.39,6.5,8.44,9.38c19.32,18.2,38.75,36.28,58.14,54.41c-1.93,4.66-4.21,0.89-6.34,0.25
			c-7.68-2.29-15.35-4.62-23.03-6.93c0,0-0.09-0.12-0.09-0.12c-0.42-0.45-0.84-0.9-1.26-1.35c-24.41-24.05-52.26-41.83-86.76-47.46
			c-1.55-0.25-3.11-0.45-4.67-0.67c0.56,1.42,0.91,2.97,1.71,4.24C1017.64,539.65,1023.95,549.52,1030.24,559.41z"/>
		<path fill="#A4230F" d="M1102.49,575.1c7.68,2.31,15.35,4.64,23.03,6.93c2.13,0.63,4.42,4.41,6.34-0.25
			c6.12,7.89,13.91,3.85,21.26,2.98c12.51,4.54,25.01,9.08,37.51,13.62c-5.38,14.99,7.23,13.02,14.86,15.74
			c3.05,3.5,3.54,6.51-1.6,8.46c-23.11-5.35-43.91-16.83-65.99-24.91C1124.51,592.77,1110.4,588.71,1102.49,575.1z"/>
		<path fill="#FEFEFD" d="M1057.87,546.24c4.94,7.14,8.86,12.52,12.42,18.13c1.02,1.6-0.68,3.87-2.16,3.29
			c-5.57-2.2-10.86-5.42-12.77-11.4C1054.65,554.01,1056.61,550.9,1057.87,546.24z"/>
		<path fill="#FEFEFD" d="M1302.14,653.32c1.12,0.66,2.24,1.33,3.36,1.99C1303.75,655.7,1302.57,655.13,1302.14,653.32z"/>
		<path fill="#A4230F" d="M1101.14,573.63c0.42,0.45,0.84,0.9,1.26,1.35C1101.98,574.53,1101.56,574.08,1101.14,573.63z"/>
		<path fill="#FEFEFD" d="M1190.64,598.38c-12.5-4.54-25.01-9.08-37.51-13.62c-4.82-5.69-9.64-11.38-14.46-17.07
			c3.39,0.2,6.95-0.19,10.15,0.69c11.31,3.11,22.51,6.65,33.74,10.03c13.7,7.13,27.41,14.27,41.11,21.4
			c2.38,5.9,8.96,5.54,13.15,8.77c1.47,1.14,3.84,1.62,2.98,4.1c-1.08,3.12-2.99,0.81-4.59,0.4c-7.11-1.84-14.22-3.66-21.34-5.49
			C1206.12,604.52,1198.38,601.45,1190.64,598.38z"/>
		<path fill="#C77422" d="M1182.56,578.41c-11.24-3.38-22.43-6.92-33.74-10.03c-3.21-0.88-6.76-0.5-10.15-0.69
			c-15.31-2.18-25.88-11.62-35.23-22.93c0.27-0.34,0.54-0.68,0.82-1.01c6.32,2.34,13.53,3.44,18.78,7.25
			c16.31,11.82,38.59,5.45,54.32,18.68C1180.39,572.24,1183.83,573.66,1182.56,578.41z"/>
		<path fill="#C77422" d="M1103.43,544.76c-0.61-0.49-1.22-0.99-1.83-1.48c0.88,0.16,1.77,0.32,2.65,0.47
			C1103.98,544.08,1103.7,544.42,1103.43,544.76z"/>
		<path fill="#8C1308" d="M416.03,218.03c5.38,5.33,4.8,13.41,7.97,19.83c0.76,1.54-0.58,3.23-2.8,2.53
			c-9.45-2.94-21.17-4.3-25.4-13.24C394.38,224.18,408.72,221.91,416.03,218.03z"/>
		<path fill="#A4230F" d="M966.51,368.9c1.71,3.53,7.22,6.59,4.64,10.29c-1.45,2.08-7.72,2.06-11.34,1.12
			c-10.06-2.61,1-8.64-1.56-12.69C961,368.05,963.76,368.48,966.51,368.9z"/>
		<path fill="#EBB58D" d="M1017.49,404.91c-1.74,1.61-3.48,3.23-5.22,4.84c-4.06,0.14-8.13,0.22-12.19,0.44
			c-21.17,1.16-26.47,6.39-25.23,24.9c0.74,11.07,5.61,18.02,17.8,17.5c0.06,5.89,0.13,11.77,0.19,17.66
			c0.01,2.28,0.02,4.55,0.03,6.83c-5.65,1.55-11.23,3.94-16.97,4.37c-4.45,0.34-9.03-0.93-6.93-8.28
			c6.33-22.24,6.07-22.32-17.65-22.47c-2.45-0.02-4.9-0.05-7.35-0.08c-0.88-11.64-2.72-23.16-1.86-34.96
			c0.85-11.64,5.2-18.17,17.91-15.95c1.52-0.42,3.04-0.84,4.56-1.26c0,0,0.25-0.13,0.25-0.13c12.21-0.86,24.26-2.63,35.88-6.67
			c1.17,0.01,2.33,0.03,3.49,0.04C1007.61,397.13,1015.11,398.45,1017.49,404.91z"/>
		<path fill="#EBB58D" d="M959.07,573.6c0.05-15.32,0.11-30.63,0.16-45.94c2.43-5.49,4.87-10.97,7.31-16.46
			c2.39-0.82,4.18-4.78,6.93-2.44c1.39,1.19,1.57,4.47,1.38,6.72c-0.69,8.22,0.28,15.58,7.43,21.11c4.04,3.13,2.94,6.68,0.44,10.69
			c-4.47,7.17-17.39,10.88-10.25,23.46c0.16,0.28-6.14,4.22-9.42,6.45C961.71,575.99,960.39,574.8,959.07,573.6z"/>
		<path fill="#EBB58D" d="M1048.3,413c-5.05-0.81-7.12-5.42-10.56-8.28c1.78-3.36,3.56-6.72,5.34-10.09
			c13.45,4.22,26.91,8.44,40.36,12.67c0,0,0.45-0.36,0.45-0.36c0.29,0.39,0.59,0.79,0.88,1.19c5.09,6.76,15.61,7.51,18.52,16.68
			c-5.95,2.78-10.17-3.44-15.67-2.99c-7.12-3.44-14.24-6.87-21.36-10.31C1060.09,409.85,1053.94,408.39,1048.3,413z"/>
		<path fill="#C77422" d="M1043.07,394.63c-1.78,3.36-3.55,6.73-5.34,10.09c-6.78-2.68-13.52-1.6-20.25,0.19
			c-2.37-6.47-9.87-7.79-13.28-13.21c6.67-7.21,14.1-7.41,22.58-3.17C1031.94,391.11,1037.62,392.64,1043.07,394.63z"/>
		<path fill="#C77422" d="M1000.71,391.66c-11.62,4.03-23.67,5.81-35.88,6.67C969.44,381.2,980.53,379.14,1000.71,391.66z"/>
		<path fill="#C77422" d="M964.58,398.45c-1.52,0.42-3.04,0.84-4.56,1.26C961.54,399.3,963.06,398.88,964.58,398.45z"/>
		<path fill="#160101" d="M993.94,476.95c17.56,1.03,32.09,11.31,48.45,16.02c0.57,0.16,1.08,4.08,0.24,5.01
			c-5.93,6.58-11.4,14.19-21.39,14.75c-9.27,0.53-12.84-6.74-16.93-13.1c-2.74-4.26-5.4-8.56-8.1-12.85
			C995.46,483.51,994.7,480.23,993.94,476.95z"/>
		<path fill="#A4230F" d="M1226.48,503.66c-0.48-0.09-0.91-0.28-1.29-0.57c2.11-2.14,5.47-3.45,4.91-7.36
			c12.21,0.31,24.43,0.54,36.64,0.98c2.22,0.08,6.11-1.66,5.48,3.36c-0.39,3.08-5.47,7.64-1.63,8.57c4.9,1.19,10.84-1.62,16.26-2.99
			c1.15-0.29,2.06-1.72,2.97-2.72c4.09-4.52,11.32-5.14,13.87-2.46c2.67,2.81-3.99,5.58-6.82,7.78
			c-25.08,19.4-26.78,19.34-53.55,2.15c-3.61-2.32-7.69-3.92-11.56-5.85C1230,504.25,1228.24,503.96,1226.48,503.66z"/>
		<path fill="#C77422" d="M1230.1,495.73c0.56,3.92-2.8,5.23-4.91,7.36c-3.09-0.4-6.17-0.79-9.26-1.18
			c-5.49-6.31-13.77-6.22-20.76-7.31c-5.43-0.85-1.73,4.85-1.25,7.6c0.54,3.12,3.11,6.5,0.88,9.26c-2.59,3.21-6.37,0.3-8.87-0.71
			c-7.98-3.23-17.49-2.37-24.21-8.9c4.71-2.37,10.57-2.92,13.26-8.46c1-3.29,2-6.58,3-9.87c9.61,1.02,19.2,2.34,28.84,2.98
			C1215.69,487.08,1223.29,490.26,1230.1,495.73z"/>
		<path fill="#C77422" d="M1226.48,503.66c1.76,0.29,3.52,0.59,5.28,0.88C1230,504.25,1228.24,503.96,1226.48,503.66z"/>
		<path fill="#C77422" d="M1087.61,421.81c5.5-0.45,9.72,5.77,15.67,2.99c4.1,1.88,8.79,3.06,12.1,5.87
			c2.72,2.3,10.49,3.54,5.48,9.78c-3.53,4.39-6.54,12.27-14.99,5.57c-2.83-2.25-6.84-3.23-10.47-4.21
			C1083.57,438.63,1085.49,430.31,1087.61,421.81z"/>
		<path fill="#C77422" d="M1048.3,413c5.64-4.61,11.79-3.16,17.95-1.49c-5.56,1.31-4.03,7.07-6.5,10.32
			C1055.91,418.92,1050.64,417.85,1048.3,413z"/>
		<path fill="#8C1308" d="M1084.76,408.13c-0.29-0.4-0.58-0.79-0.88-1.19C1084.18,407.34,1084.47,407.73,1084.76,408.13z"/>
		<path fill="#C77422" d="M994.31,565.42c7.67,0.29,14.84-6.01,22.82-1.74c-4.85,2.2-10.07,3.85-14.46,6.74
			C995.6,575.08,994.53,571.34,994.31,565.42z"/>
		<path fill="#A4230F" d="M744.26,257.82c3.24,0,6.56-0.43,9.71,0.14c2.4,0.43,6.28-0.88,6.89,2.49c0.31,1.73-2.25,3.93-3.37,5.99
			c-1.72,3.16-4.07,2.9-6.85,1.6c-2.68-1.26-5.61-2.06-8.16-3.52c-3.82-2.19-9.03-1.75-11.67-6.15c4.48-0.28,8.96-0.56,13.45-0.84
			C744.25,257.62,744.26,257.72,744.26,257.82z"/>
		<path fill="#A4230F" d="M1281.69,359.59c0.03,0.91,0.05,1.82,0.08,2.74c-0.27,1.2-0.55,2.4-0.83,3.6
			c-3.16,15.2-15.68,16.75-27.73,18.98C1251.14,363.48,1271.22,366.94,1281.69,359.59z"/>
		<path fill="#EBB58D" d="M1190.64,598.38c7.74,3.07,15.48,6.14,23.22,9.21c-5.15-0.84-7.04,2.49-8.36,6.53
			C1197.86,611.4,1185.26,613.37,1190.64,598.38z"/>
		<path fill="#FEFEFD" d="M1206.83,413.92c-12.52,3.51-25.04,7.01-37.56,10.52c-7.11-3-3.09-9.54-4.56-14.34
			c10.18-3.46,20.37-6.93,30.55-10.39c2.64,0.32,5.33,0.44,7.92,1.02c4.09,0.92,11.28,1.66,11.55,3.36
			C1215.44,408.6,1209.85,410.76,1206.83,413.92z"/>
		<path fill="#C77422" d="M1280.94,365.93c0.28-1.2,0.55-2.4,0.83-3.6C1281.49,363.53,1281.21,364.73,1280.94,365.93z"/>
		<path fill="#C77422" d="M1404.65,459.16c-0.14,0.51-0.28,1.02-0.42,1.53C1404.38,460.18,1404.51,459.67,1404.65,459.16z"/>
		<path fill="#FEFEFD" d="M992.66,452.6c-12.19,0.52-17.06-6.43-17.8-17.5c-1.24-18.51,4.06-23.74,25.23-24.9
			c4.06-0.22,8.13-0.3,12.19-0.44c7.36,3.91,14.9,7.51,22.04,11.79c12.07,7.24,12.79,19.96,2.44,36.51
			c-6.19,3.96-12.67,3.5-19.44,1.68C1009.03,457.53,1001.56,452.57,992.66,452.6z"/>
		<path fill="#C77422" d="M992.66,452.6c8.91-0.03,16.37,4.93,24.64,7.14c6.78,1.81,13.26,2.28,19.44-1.68
			c0.32,0.26,0.6,0.58,0.82,0.95c0.37,2.19,0.75,4.38,1.12,6.57c-11.58,8.03-21.77-0.79-32.27-3.16
			c-8.03-1.82-13.51-2.58-13.58,7.84C992.78,464.37,992.72,458.48,992.66,452.6z"/>
		<path fill="#160101" d="M1038.69,465.58c-0.37-2.19-0.75-4.38-1.12-6.57c13.2,4.46,23.75,13.62,35.72,20.25
			c0.92,0.51,1.25,2.08,1.85,3.16c-1.66,0.82-3.24,2.08-4.99,2.37c-12.47,2.09-16.92-10.22-25.8-14.65
			C1042.22,469.08,1040.56,467.12,1038.69,465.58z"/>
	</g>
</g>
</svg>
